# xmcd CD database file
#
# Track frame offsets:
#	150
#	15543
#	34165
#	50727
#	67148
#	83628
#	97194
#	107011
#	125230
#	137033
#	152332
#	166394
#	186011
#	205051
#	214693
#	228597
#	247109
#	266186
#	279496
#	291652
#
# Disc length: 4111 seconds
#
# Revision: 1
# Processed by: cddbd v1.5.2PL0 Copyright (c) Steve Scherf et al.
# Submitted via: CDex 1.70beta2
#
DISCID=36100d14
DTITLE=Various Artist - Legends Of Line Dancing - CD2
DYEAR=2006
DGENRE=Country
TTITLE0=Blue Ridge Mountain Band/Sweet Caroline
TTITLE1=Blue Ridge Mountain Band/Don't Be Stupid
TTITLE2=George Moody and The Country Squires/Devil Woman
TTITLE3=Blue Ridge Mountain Band/Jambalaya
TTITLE4=The Nashville Set/Be Bop A Lula
TTITLE5=The Nashville Set/Summertime Blues
TTITLE6=Blue Ridge Mountain Band/Good Ol' Boys
TTITLE7=George Moody and The country Squires/Dream You
TTITLE8=Blue Ridge Mountain Band/Ring Of Fire
TTITLE9=Blue Ridge Mountain Band/Wichita Lineman
TTITLE10=The Nashville Set/Rhinestone Cowboy
TTITLE11=George Moody and The Country Squires/Good Hearted Woman
TTITLE12=Blue Ridge Mountain Band/Américan Pie
TTITLE13=Blue Ridge Mountain Band/Don't It Make My Brown Eyes Blues
TTITLE14=The Nashville Set/Love Potion No.9
TTITLE15=Blue Ridge Mountain Band/Black Velvet
TTITLE16=The Dockery Boys/Zydecajun Cowboy Blues
TTITLE17=The Nashville Set/Shake Rattle and Roll
TTITLE18=Blue Ridge Mountain Band/Stand By Your Man
TTITLE19=Blue Ridge Mountain Band/Always On My Mind
EXTD=YEAR: 2006
EXTT0=
EXTT1=
EXTT2=
EXTT3=
EXTT4=
EXTT5=
EXTT6=
EXTT7=
EXTT8=
EXTT9=
EXTT10=
EXTT11=
EXTT12=
EXTT13=
EXTT14=
EXTT15=
EXTT16=
EXTT17=
EXTT18=
EXTT19=
PLAYORDER=
